<?xml version="1.0" encoding="UTF-8"?>
<svg version="1.1" xmlns="http://www.w3.org/2000/svg" width="1777" height="1024">
<path d="M0 0 C0.85932129 0.42007324 1.71864258 0.84014648 2.60400391 1.27294922 C24.54611709 12.11337407 44.756423 25.59635403 62.47314453 42.54052734 C63.50315775 43.52508427 64.53812459 44.5044814 65.57763672 45.47900391 C101.0895053 78.85303425 124.22151436 129.70686344 126.22119141 178.46655273 C126.36338296 183.29028397 126.3866206 188.11195806 126.375 192.9375 C126.37418427 194.21833969 126.37418427 194.21833969 126.37335205 195.52505493 C126.33210854 209.66052581 125.39933378 223.22553485 122 237 C121.79101074 237.85464844 121.58202148 238.70929688 121.36669922 239.58984375 C110.78140741 281.26497016 85.03406549 318.85789172 51 345 C50.43941895 345.4316748 49.87883789 345.86334961 49.30126953 346.30810547 C40.24963157 353.23515359 30.880272 359.32409906 21 365 C24.25883243 368.89249429 27.60482622 372.64839284 31.10424805 376.32739258 C66.83129251 414.15366617 87.36776193 462.76732151 86.13183594 514.83642578 C84.9551456 543.07263583 74.28314611 571.33843725 61 596 C60.64824707 596.66338379 60.29649414 597.32676758 59.93408203 598.01025391 C51.02542719 614.74250945 39.92775544 629.65683939 27.1328125 643.64453125 C25.30504283 645.66311204 23.55653806 647.72228353 21.8125 649.8125 C-2.02584561 676.978395 -35.88753829 697.38873889 -69 711 C-69.75925781 711.31275879 -70.51851562 711.62551758 -71.30078125 711.94775391 C-100.63514595 723.82209195 -131.6012211 728.74990956 -162.875 732.25 C-163.61691589 732.33317474 -164.35883179 732.41634949 -165.12322998 732.50204468 C-170.07777811 733.05024585 -175.03226515 733.58557914 -180 734 C-181.46855029 734.12570767 -181.46855029 734.12570767 -182.96676826 734.25395489 C-195.98240565 735.21681323 -208.99131948 735.13654853 -222.03634501 735.11606562 C-225.53439221 735.1116969 -229.03243789 735.11321204 -232.53048706 735.1139679 C-238.57290087 735.11448911 -244.61530378 735.11138469 -250.65771484 735.10573006 C-259.39373919 735.09756005 -268.12975833 735.09499423 -276.86578608 735.09374207 C-291.04366505 735.09156014 -305.22153823 735.08492347 -319.39941406 735.07543945 C-333.16178356 735.06624303 -346.92415148 735.05917313 -360.68652344 735.05493164 C-361.5366006 735.05466892 -362.38667776 735.05440619 -363.26251483 735.05413551 C-367.52762905 735.05283035 -371.79274328 735.05156667 -376.05785751 735.05032361 C-411.37190914 735.03997778 -446.68595403 735.02238298 -482 735 C-481.4482653 730.1419847 -480.74855208 725.49535287 -479.5582428 720.745224 C-479.26314316 719.55788162 -478.96804352 718.37053925 -478.66400146 717.1472168 C-478.3373688 715.85324913 -478.01064451 714.5593046 -477.68383789 713.26538086 C-477.33811557 711.88198178 -476.99280556 710.49847961 -476.64787292 709.11488342 C-475.70886519 705.353435 -474.76401066 701.59347734 -473.81806874 697.83376765 C-472.80888368 693.81859726 -471.80497469 689.80210766 -470.80039978 685.78578186 C-469.09604199 678.97481222 -467.38821647 672.16472001 -465.67797852 665.35522461 C-463.33556601 656.02862728 -460.99940571 646.70047339 -458.66459012 637.37197185 C-449.99848815 602.75183447 -441.27487021 568.14659287 -432.49168587 533.55598259 C-425.83390526 507.33461422 -419.25043338 481.09517303 -412.70669556 454.84509277 C-409.70829458 442.81758214 -406.70439218 430.79144504 -403.69921875 418.765625 C-403.40407568 417.58450386 -403.10893261 416.40338272 -402.80484581 415.18647003 C-397.51600862 394.02572779 -392.17599707 372.87837643 -386.79150391 351.74179077 C-382.23932496 333.87124428 -377.74182752 315.98771608 -373.28784752 298.09241867 C-372.42105682 294.61006268 -371.55371875 291.12784344 -370.68623352 287.6456604 C-368.10890688 277.29854438 -365.5334385 266.95099165 -362.96879292 256.60072422 C-361.91009118 252.33196277 -360.84759244 248.06415272 -359.78415871 243.79656792 C-359.28562851 241.79224898 -358.78878728 239.78750913 -358.29370689 237.78233528 C-357.61221036 235.02282766 -356.92496346 232.26481343 -356.23632812 229.50708008 C-356.03798276 228.69774899 -355.83963739 227.88841789 -355.63528156 227.05456161 C-353.74690764 219.54196411 -353.74690764 219.54196411 -352 217 C-349.29816723 215.7618023 -346.75424021 214.77869764 -343.9453125 213.85546875 C-343.11401825 213.5692012 -342.282724 213.28293365 -341.42623901 212.98799133 C-338.66372095 212.04049407 -335.89457329 211.1141511 -333.125 210.1875 C-331.17662153 209.52348894 -329.2287115 208.85810187 -327.28125 208.19140625 C-322.19468236 206.45369026 -317.10252983 204.73297169 -312.00891113 203.01605225 C-307.29157261 201.42309646 -302.57927829 199.81543131 -297.8671875 198.20703125 C-296.05388606 197.58826131 -294.24057228 196.9695275 -292.42724609 196.35083008 C-291.53318054 196.04577545 -290.63911499 195.74072083 -289.71795654 195.42642212 C-286.97610516 194.49185538 -284.23351543 193.55948555 -281.49072266 192.62768555 C-268.8045385 188.31556616 -256.14605301 183.92830964 -243.5 179.5 C-228.11982053 174.11427237 -212.71308444 168.81284558 -197.28103638 163.5776062 C-186.76218049 160.00863042 -176.25751702 156.40386146 -165.77734375 152.72265625 C-164.27985092 152.19718704 -164.27985092 152.19718704 -162.75210571 151.66110229 C-157.9372274 149.97067368 -153.12441485 148.27467972 -148.31445312 146.5703125 C-146.59380222 145.96469535 -144.87310184 145.35921877 -143.15234375 144.75390625 C-142.36705795 144.47345963 -141.58177216 144.193013 -140.77268982 143.90406799 C-137.72504205 142.83589697 -135.25460289 142 -132 142 C-134.56805777 153.88939195 -137.36709786 165.70209748 -140.36591148 177.48991013 C-141.13079352 180.49692515 -141.89223266 183.50479702 -142.6530304 186.5128479 C-143.79906006 191.04287732 -144.94635509 195.57258351 -146.09460449 200.10205078 C-149.40874894 213.17788018 -152.71123839 226.25665377 -156.01171875 239.3359375 C-156.19556075 240.06437835 -156.37940274 240.79281919 -156.56881571 241.54333401 C-164.13666264 271.5312553 -171.6459028 301.53376737 -179.14453125 331.5390625 C-179.43231154 332.69054637 -179.72009183 333.84203025 -180.01659274 335.02840757 C-185.57995203 357.28914883 -191.14082962 379.55050982 -196.69845581 401.81268311 C-200.03230205 415.16704944 -203.36704797 428.52119076 -206.703125 441.875 C-206.97015834 442.94394768 -207.23719168 444.01289536 -207.51231694 445.1142354 C-216.45517008 480.91057319 -225.46611665 516.68918079 -234.57292938 552.44416809 C-236.40096476 559.62474865 -238.20891296 566.81011322 -240 574 C-219.69379584 572.71056987 -200.60379305 569.49802893 -182 561 C-180.82050781 560.46503906 -179.64101562 559.93007813 -178.42578125 559.37890625 C-150.17418933 545.92132726 -127.19107397 522.9724947 -116.1796875 493.484375 C-106.53210127 464.98885542 -110.05389751 433.06727452 -122.84765625 405.97265625 C-135.07070151 381.41567117 -154.05923481 366.19243016 -178 354 C-175.20547561 350.7517521 -171.57047467 348.85064188 -167.9375 346.6875 C-158.38371428 340.84609254 -149.6626502 334.07826059 -141 327 C-140.35708008 326.47567383 -139.71416016 325.95134766 -139.05175781 325.41113281 C-123.15515092 312.32423655 -107.97404611 297.80627338 -96 281 C-95.57960449 280.4239502 -95.15920898 279.84790039 -94.72607422 279.25439453 C-78.28420917 256.58859719 -69.33557981 231.56595417 -72.390625 203.3984375 C-75.0385957 189.98884228 -81.71144307 176.96344252 -91 167 C-91.66386719 166.24589844 -92.32773438 165.49179688 -93.01171875 164.71484375 C-111.21973636 145.0932647 -139.30872203 137.35545332 -165 134 C-165.67893311 133.90428711 -166.35786621 133.80857422 -167.05737305 133.70996094 C-176.29637128 132.5819966 -185.64487857 132.75602422 -194.9375 132.75 C-195.87273499 132.74932526 -196.80796997 132.74865051 -197.77154541 132.74795532 C-213.38506449 132.76579534 -228.54987698 133.59588432 -244 136 C-244.99676758 136.14501953 -245.99353516 136.29003906 -247.02050781 136.43945312 C-287.26562686 142.39310186 -327.01995079 153.55986178 -366 165 C-367.3422464 165.39315399 -367.3422464 165.39315399 -368.71160889 165.79425049 C-393.65570931 173.10990541 -418.41086535 180.9143006 -443.00860596 189.32037354 C-444.96307101 189.98739681 -446.91858424 190.65124342 -448.87451172 191.31396484 C-452.41834193 192.51604472 -455.95978086 193.7248311 -459.5 194.9375 C-460.50168213 195.2787793 -461.50336426 195.62005859 -462.53540039 195.97167969 C-464.36517265 196.60468535 -466.18870711 197.25623804 -468.00314236 197.93195057 C-471 199 -471 199 -474.01430607 199.8275938 C-478.59201474 201.28513042 -482.0353813 202.42929621 -484.61967278 206.63733864 C-485.83384044 210.14054328 -486.68456178 213.59885569 -487.46459961 217.22387695 C-487.80085643 218.60466203 -488.1417497 219.98432477 -488.4868412 221.36292839 C-489.22712595 224.36155282 -489.93470021 227.36545887 -490.61822701 230.37752342 C-491.73425325 235.29352309 -492.92088188 240.19091462 -494.1169281 245.08796692 C-495.63364781 251.31951826 -497.13195733 257.55501874 -498.60930902 263.7960214 C-501.57735889 276.32984451 -504.67712257 288.82804572 -507.82470703 301.31787109 C-508.196809 302.79544463 -508.196809 302.79544463 -508.57642817 304.30286813 C-509.5913869 308.33307321 -510.60659338 312.36321558 -511.6225394 316.39317191 C-514.50395017 327.82696994 -517.35680354 339.2678667 -520.20898438 350.70898438 C-520.73669065 352.82503743 -521.26441908 354.94108497 -521.79216957 357.057127 C-522.85156448 361.30500022 -523.91082045 365.55290805 -524.9699707 369.80084229 C-529.44841834 387.76197818 -533.93055335 405.72219446 -538.41467118 423.68191552 C-538.93262037 425.7564549 -539.45053019 427.8310041 -539.96840072 429.90556312 C-546.86341202 457.526368 -553.80103034 485.13570891 -560.81563377 512.72638083 C-566.92526076 536.75782125 -572.96903351 560.80513921 -578.97265625 584.86328125 C-579.3928303 586.54671547 -579.81300965 588.23014838 -580.23319435 589.91357994 C-583.82476129 604.3037488 -587.41349248 618.69462471 -590.99966091 633.08613986 C-593.1289369 641.63103234 -595.25966707 650.17555945 -597.39298433 658.71944398 C-598.57666511 663.46049617 -599.7582919 668.20205272 -600.93806374 672.94407904 C-601.67767861 675.91462971 -602.41942611 678.88464531 -603.16165543 681.85454369 C-603.64445911 683.78877227 -604.12492302 685.72358449 -604.60517883 687.65844727 C-608.56609776 703.4856984 -612.82400249 719.22400941 -617 735 C-685.97 735 -754.94 735 -826 735 C-824.87499381 724.87494425 -824.87499381 724.87494425 -823.74806213 720.38424683 C-823.49503326 719.36381287 -823.24200439 718.34337891 -822.98130798 717.29202271 C-822.56625755 715.65642899 -822.56625755 715.65642899 -822.14282227 713.98779297 C-821.84972168 712.8130542 -821.55662109 711.63831543 -821.25463867 710.42797852 C-820.44994405 707.20786426 -819.64002592 703.98915095 -818.8277142 700.77095556 C-817.9577793 697.31922724 -817.09453884 693.86582452 -816.23045349 690.41262817 C-814.7622444 684.54901068 -813.28975024 678.68648354 -811.81420898 672.82470703 C-809.80336424 664.83635665 -807.79981427 656.84619271 -805.79806817 648.85555828 C-799.8744384 625.21295044 -793.93162402 601.57517717 -787.92553711 577.95336914 C-787.58400954 576.60997685 -787.2424848 575.26658383 -786.90096283 573.92319012 C-786.64523408 572.91729134 -786.64523408 572.91729134 -786.38433909 571.89107138 C-777.43866443 536.70294688 -768.60478806 501.48751046 -759.80859375 466.26171875 C-759.17923717 463.74160978 -758.54987888 461.22150124 -757.92051888 458.70139313 C-752.75883438 438.03184091 -747.59930508 417.36175035 -742.44250488 396.690979 C-742.27729583 396.02874833 -742.11208677 395.36651765 -741.94187138 394.68421938 C-741.69397642 393.69054564 -741.69397642 393.69054564 -741.44107348 392.67679769 C-741.10728174 391.33881231 -740.77348967 390.00082701 -740.43969727 388.6628418 C-740.27473294 388.00159098 -740.10976862 387.34034016 -739.93980538 386.65905144 C-737.19386733 375.65230933 -734.44609951 364.6460252 -731.6969009 353.64009696 C-729.86876982 346.32105722 -728.04275006 339.00149509 -726.21833789 331.6815275 C-725.09661257 327.1829519 -723.97294518 322.68486316 -722.84870911 318.18691444 C-722.32742916 316.09963942 -721.80696398 314.01216072 -721.28735542 311.92446899 C-720.58141404 309.08860382 -719.87261749 306.25346767 -719.16307068 303.41850281 C-718.95647762 302.58562278 -718.74988457 301.75274275 -718.53703111 300.89462394 C-717.11411146 295.22822292 -717.11411146 295.22822292 -716 293 C-741.23237313 304.10983174 -766.42658031 315.29871143 -791.5549469 326.64187622 C-797.42177776 329.28980493 -803.29207303 331.92993899 -809.1640625 334.56640625 C-811.70664235 335.70840058 -814.24917943 336.85049004 -816.79168701 337.99264526 C-818.46256549 338.74320755 -820.13350392 339.49363637 -821.80450439 340.243927 C-830.90291016 344.3305257 -839.98829658 348.44296314 -849.046875 352.6171875 C-850.25895882 353.17492355 -850.25895882 353.17492355 -851.49552917 353.743927 C-855.32534825 355.50655767 -859.15275534 357.27405757 -862.97583008 359.05126953 C-864.3392658 359.68020744 -865.70278641 360.30896138 -867.06640625 360.9375 C-868.24146729 361.48277344 -869.41652832 362.02804687 -870.62719727 362.58984375 C-874.07137267 364.02984065 -877.39637991 365.04982169 -881 366 C-879.36191985 355.37990824 -876.59618444 345.02383747 -873.96875 334.6171875 C-873.45978282 332.58983902 -872.95117002 330.56240155 -872.44288635 328.53488159 C-871.36122692 324.22260027 -870.27753164 319.91083809 -869.19216919 315.5994873 C-866.62503426 305.40127528 -864.06868242 295.20035848 -861.51191902 284.99954224 C-860.93776955 282.70900353 -860.3634931 280.41849664 -859.78909111 278.12802124 C-855.06431071 259.28698481 -850.380819 240.43618047 -845.74386406 221.57334518 C-844.45352501 216.32779106 -843.15151112 211.08522842 -841.84472656 205.84375 C-841.1415355 203.01848745 -840.4394332 200.19295678 -839.73828125 197.3671875 C-839.57139172 196.69480797 -839.40450218 196.02242844 -839.23255539 195.32967377 C-837.30975664 187.56381932 -835.48081007 179.78570491 -833.82054138 171.95898438 C-833.00455611 168.11249921 -832.15256065 164.27440582 -831.29879761 160.43615723 C-830.77705003 158.00123847 -830.32016758 155.56079756 -829.86743164 153.11230469 C-828.73209889 147.64574501 -827.66296131 143.33102493 -823.15258789 139.72094727 C-820.1151652 138.1453098 -817.1822943 136.86496395 -813.97064209 135.71789551 C-812.01337063 135.00487086 -810.11900048 134.20877263 -808.21337891 133.36816406 C-804.1477266 131.57570182 -800.04634588 129.87814977 -795.9375 128.1875 C-794.37823032 127.54221509 -792.81898631 126.89686814 -791.25976562 126.25146484 C-702.01952477 89.40063302 -611.37751556 55.99295435 0 0 Z " fill="#FFFFFF" transform="translate(1543,86)"/>
<path d="M0 0 C1.52777881 3.05555763 0.2688029 5.73161611 -0.54292297 8.89994812 C-0.72129533 9.61926964 -0.89966768 10.33859116 -1.08344525 11.0797103 C-1.68734199 13.50758825 -2.3013499 15.93279641 -2.9152832 18.3581543 C-3.34958174 20.09529307 -3.78326218 21.83258647 -4.21636963 23.57002258 C-5.40337299 28.32406813 -6.59917975 33.07586125 -7.79650521 37.82731605 C-9.06494453 42.86710126 -10.32549035 47.90886031 -11.58695984 52.95039368 C-13.7254708 61.49242611 -15.86911626 70.03315616 -18.01635742 78.57299805 C-20.97589204 90.34344428 -23.92677532 102.11604459 -26.87553728 113.88919353 C-36.55488149 152.53045878 -46.27742314 191.1605278 -56.08874607 229.76849675 C-61.35784161 250.50284711 -66.57003864 271.25044763 -71.72038913 292.01461673 C-72.54733487 295.34771727 -73.37529112 298.68056674 -74.20314026 302.01344299 C-74.85619108 304.6430614 -75.50916851 307.27269803 -76.16210938 309.90234375 C-76.32280061 310.54949242 -76.48349184 311.1966411 -76.6490525 311.86340034 C-78.45876995 319.15249437 -80.26519484 326.44238428 -82.06518555 333.73388672 C-83.55214243 339.75716929 -85.04536815 345.77886305 -86.54524797 351.79894102 C-87.32046911 354.91144015 -88.0920208 358.02476377 -88.85753059 361.13966751 C-107.0226358 435.02541357 -137.30279955 504.75538739 -189.4453125 561.19921875 C-191.41782535 563.36174431 -193.33714575 565.54817124 -195.24609375 567.765625 C-199.28393176 572.39376789 -203.58490876 576.7319472 -207.9375 581.0625 C-209.07735352 582.2081543 -209.07735352 582.2081543 -210.24023438 583.37695312 C-214.99665407 588.12524913 -219.88937973 592.6369094 -225 597 C-226.00928217 597.87741143 -227.01840959 598.75500092 -228.02734375 599.6328125 C-274.77866118 639.66951119 -329.90883172 670.8599602 -388 691 C-389.09199707 691.37866211 -390.18399414 691.75732422 -391.30908203 692.14746094 C-436.88998571 707.75392922 -484.30062828 717.60890771 -532 724 C-532.93779297 724.12987305 -533.87558594 724.25974609 -534.84179688 724.39355469 C-535.68291016 724.50860352 -536.52402344 724.62365234 -537.390625 724.7421875 C-538.43331543 724.88503174 -538.43331543 724.88503174 -539.49707031 725.03076172 C-546.20068344 725.80466824 -552.76185723 726.09207051 -559.50390625 726.04296875 C-560.32604614 726.03986694 -561.14818604 726.03676514 -561.99523926 726.03356934 C-563.99684145 726.02556584 -565.99842559 726.01323952 -568 726 C-558.28397672 686.17658672 -548.34909623 646.41137121 -538.2799387 606.67583847 C-537.05879959 601.85686522 -535.83790585 597.03782985 -534.6171875 592.21875 C-534.37838301 591.27610542 -534.13957851 590.33346085 -533.89353752 589.36225128 C-530.57449456 576.25782009 -527.27790886 563.14798041 -524.0078125 550.03125 C-523.81637917 549.26364916 -523.62494583 548.49604832 -523.42771149 547.70518684 C-521.64676521 540.56329407 -519.86827185 533.42080228 -518.09675789 526.27656364 C-517.32908382 523.18268632 -516.55875505 520.08946944 -515.7890625 516.99609375 C-515.51732208 515.89563721 -515.24558167 514.79518066 -514.96560669 513.66137695 C-514.71866058 512.67024902 -514.47171448 511.67912109 -514.21728516 510.65795898 C-514.0046402 509.79992172 -513.79199524 508.94188446 -513.57290649 508.05784607 C-513 506 -513 506 -512 504 C-509.42350313 503.14116771 -507.64749816 502.81663416 -504.9921875 502.640625 C-463.02515747 499.48473778 -424.70183474 485.70764857 -392 459 C-391.44103027 458.54931152 -390.88206055 458.09862305 -390.30615234 457.63427734 C-367.9591135 439.52101637 -351.01709596 416.99755934 -337 392 C-336.5364209 391.18515137 -336.0728418 390.37030273 -335.59521484 389.53076172 C-329.67512201 379.04687573 -324.69453016 368.31441434 -320.25 357.125 C-319.8264624 356.06410156 -319.4029248 355.00320313 -318.96655273 353.91015625 C-311.71638105 335.10314086 -306.69591806 315.53260489 -301.82421875 296.00390625 C-301.25546256 293.74196425 -300.68620983 291.48014704 -300.11650085 289.21844482 C-298.61015381 283.23253706 -297.11074382 277.2449124 -295.61266327 271.2569313 C-294.0576534 265.04734934 -292.49541655 258.83958588 -290.93408203 252.6315918 C-285.5610239 231.25738287 -280.21161618 209.87730452 -274.89248848 188.48961067 C-274.2429825 185.87843341 -273.59299845 183.26737563 -272.94285583 180.65635681 C-272.53065259 179.00064524 -272.11846655 177.34492939 -271.70629883 175.68920898 C-271.50897502 174.89657371 -271.31165121 174.10393843 -271.10834789 173.2872839 C-269.96541046 168.69357684 -268.82759611 164.09863822 -267.69391727 159.50263786 C-267.0071163 156.72162294 -266.31668228 153.94151908 -265.62534523 151.16162872 C-265.16556816 149.30736841 -264.71070205 147.45189251 -264.25602722 145.59637451 C-263.98510757 144.50923157 -263.71418793 143.42208862 -263.43505859 142.30200195 C-263.20418549 141.36661087 -262.97331238 140.43121979 -262.73544312 139.46748352 C-261.1426045 134.12335432 -259.41940203 132.31359937 -254.5234375 129.56640625 C-253.38986816 128.92413086 -252.25629883 128.28185547 -251.08837891 127.62011719 C-249.85079156 126.93387383 -248.61299331 126.24801072 -247.375 125.5625 C-246.10163843 124.84741348 -244.82869364 124.1315843 -243.55615234 123.41503906 C-232.94894792 117.45961569 -222.2581008 111.65661923 -211.53613281 105.91088867 C-208.70969012 104.38919662 -205.89471002 102.84720121 -203.08105469 101.30200195 C-190.81506768 94.56993 -178.47159986 88.02992722 -166 81.6875 C-165.06019287 81.20842194 -164.12038574 80.72934387 -163.15209961 80.23574829 C-142.51760686 69.7206456 -121.80905986 59.35195105 -101.09838867 48.98794937 C-98.52892161 47.70197477 -95.95975081 46.41540986 -93.390625 45.12875366 C-75.81867517 36.33047026 -58.22971217 27.59028016 -40.46972656 19.17605591 C-36.36865343 17.22317118 -32.28555077 15.23369076 -28.203125 13.2421875 C-27.4495874 12.87493057 -26.6960498 12.50767365 -25.91967773 12.12928772 C-22.91791857 10.66574987 -19.91679001 9.20093041 -16.91650391 7.734375 C-14.65866368 6.63119266 -12.39972833 5.53028036 -10.140625 4.4296875 C-9.46267883 4.09750214 -8.78473267 3.76531677 -8.08624268 3.42306519 C-5.41265288 2.12195484 -2.8248827 0.94162757 0 0 Z " fill="#FFFFFF" transform="translate(688,239)"/>
<path d="M0 0 C0.88422337 0.00291284 1.76844674 0.00582568 2.67946476 0.00882679 C4.0773213 0.00754515 4.0773213 0.00754515 5.50341737 0.00623763 C8.65118445 0.00457997 11.79889918 0.01010884 14.94666141 0.01555592 C17.19308576 0.01583775 19.43951019 0.01568013 21.68593448 0.01511341 C27.80552281 0.0148253 33.92509173 0.02072425 40.04467553 0.02768737 C46.43220479 0.03391862 52.81973444 0.03452453 59.20726627 0.03571278 C69.93518072 0.03847249 80.66308663 0.04472802 91.39099735 0.05364186 C102.4427548 0.06281525 113.4945103 0.06989644 124.54627079 0.07414967 C125.22704306 0.07441239 125.90781532 0.07467512 126.60921706 0.0749458 C130.02431465 0.0762508 133.43941227 0.07751452 136.85450989 0.0787577 C165.20416103 0.08913119 193.55380439 0.10682439 221.90344852 0.12908131 C219.74903798 9.93537992 217.57939917 19.73010707 215.12952274 29.46770436 C214.88165516 30.46107304 214.63378757 31.45444172 214.37840885 32.47791249 C213.57393525 35.69945105 212.76612105 38.92014056 211.95813602 42.14080006 C211.38228969 44.44298765 210.80662024 46.74521949 210.23111576 49.04749256 C209.02732341 53.86110677 207.82196806 58.6743258 206.61536258 63.48723561 C205.39993466 68.33547931 204.18600091 73.18409222 202.97376102 78.03313404 C202.53009756 79.80774919 202.53009756 79.80774919 202.0774712 81.61821514 C201.48312887 83.99579903 200.88889283 86.37340948 200.29476398 88.75104672 C198.83318526 94.5962517 197.366173 100.43999581 195.88751835 106.28090626 C195.31291058 108.55235902 194.73846605 110.82385308 194.16419071 113.0953899 C193.88553543 114.19759814 193.60688015 115.29980637 193.31978077 116.43541485 C191.74681226 122.68637084 190.22516263 128.9464024 188.76130337 135.22379929 C187.90282201 138.8964698 187.02213938 142.56362393 186.13865131 146.23034817 C185.74274572 147.90184357 185.35813767 149.57606275 184.9859032 151.2529884 C184.48049756 153.52784856 183.93715507 155.79038703 183.38440555 158.05413014 C182.95129566 159.93760906 182.95129566 159.93760906 182.50943607 161.85913807 C180.25279931 166.45386492 177.36447059 167.85312073 172.90344852 170.12908131 C172.03784054 170.5843328 171.17223255 171.0395843 170.28039402 171.50863129 C167.23473143 173.08381845 164.16938158 174.61414082 161.09754032 176.13762623 C159.93695606 176.71726124 158.7763718 177.29689625 157.58061832 177.89409596 C155.06972184 179.14808579 152.55759151 180.39955506 150.04444546 181.64903027 C146.05013884 183.6349461 142.05875131 185.6266811 138.06770939 187.61914784 C131.73496053 190.77984408 125.40035586 193.93680003 119.06491494 197.09209621 C107.77037508 202.71723705 96.4779771 208.34667011 85.18778777 213.98053777 C81.24116884 215.94970745 77.29341093 217.91656878 73.34474659 219.8816334 C60.04258329 226.5032066 46.7957602 233.20774441 33.67953628 240.19175392 C29.79077136 242.2440432 25.8492009 244.18944966 21.90344852 246.12908131 C14.77356741 249.66654306 7.70567521 253.30306693 0.67420048 257.03191334 C-4.19012934 259.60810589 -9.06918805 262.15376623 -13.96373898 264.67205006 C-14.56712597 264.98256809 -15.17051296 265.29308613 -15.79218441 265.6130138 C-16.40381939 265.92777165 -17.01545437 266.24252949 -17.64562374 266.56682545 C-28.57777369 272.19306313 -39.45149185 277.90334195 -50.22765499 283.82488209 C-56.73805341 287.39909876 -63.27711549 290.91450196 -69.84655148 294.37908131 C-71.19716671 295.09692799 -71.19716671 295.09692799 -72.5750671 295.82927662 C-73.4020007 296.26336842 -74.22893429 296.69746022 -75.08092648 297.14470631 C-75.81021359 297.5291692 -76.5395007 297.91363209 -77.29088742 298.30974537 C-79.09655148 299.12908131 -79.09655148 299.12908131 -81.09655148 299.12908131 C-79.70837067 290.78519268 -77.82395167 282.62094623 -75.75866085 274.4210735 C-75.42274454 273.07661494 -75.08713679 271.73207927 -74.75180966 270.38747364 C-73.84279464 266.746303 -72.92940367 263.10624316 -72.01515538 259.46638352 C-71.0375216 255.57113463 -70.06381798 251.67490322 -69.08959347 247.77880055 C-67.43753584 241.17426455 -65.78284013 234.57039418 -64.12633663 227.96697193 C-62.06165973 219.73638274 -60.00101397 211.50479078 -57.94184929 203.27282101 C-49.13100744 168.04965693 -40.26404384 132.8411023 -31.32809025 97.64947087 C-27.07311543 80.89247598 -22.82542984 64.1339694 -18.65514523 47.35564381 C-18.47139466 46.61673908 -18.28764408 45.87783436 -18.09832531 45.11653858 C-16.54389657 38.86433274 -14.99327882 32.61118785 -13.44640499 26.35710865 C-12.55977117 22.77323324 -11.66980167 19.19020041 -10.77762944 15.60769993 C-10.29582595 13.6687487 -9.81788097 11.72883995 -9.34006649 9.78890187 C-8.91679829 8.09064762 -8.91679829 8.09064762 -8.48497921 6.35808522 C-8.1167429 4.8706229 -8.1167429 4.8706229 -7.74106747 3.35311085 C-6.4819898 -0.99158496 -4.1390112 0.01035031 0 0 Z " fill="#FFFFFF" transform="translate(515.0965514779091,47.870918691158295)"/>
</svg>
